<?xml version="1.0" encoding="utf-8"?>
<!-- Generator: Adobe Illustrator 18.1.1, SVG Export Plug-In . SVG Version: 6.00 Build 0)  -->
<!DOCTYPE svg PUBLIC "-//W3C//DTD SVG 1.1//EN" "http://www.w3.org/Graphics/SVG/1.1/DTD/svg11.dtd">
<svg version="1.1" id="Layer_1" xmlns="http://www.w3.org/2000/svg" xmlns:xlink="http://www.w3.org/1999/xlink" x="0px" y="0px"
	 viewBox="0 0 2560 1600" enable-background="new 0 0 2560 1600" xml:space="preserve">
<g>
	<path fill="none" stroke="#CD4535" stroke-width="7" stroke-miterlimit="10" d="M747.1,824.9c-2.4-13.3-14.6-21.3-27.4-19
		s-21.4,14.1-19,27.4c3,16.9,16.7,36.9,30.1,34.5C744.3,865.3,750.1,841.8,747.1,824.9z"/>
	<path fill="none" stroke="#CD4535" stroke-width="7" stroke-miterlimit="10" d="M716.7,878.3c-1,1.4-2.3,2.4-3.8,3.1l-12.2,5.3
		c-5.8,2.5-9.6,8.3-9.4,14.7l0.2,14.1c0,0,12,5.1,47.6-1.3s45.1-15.4,45.1-15.4l-4.7-13.3c-2.1-6-7.6-10.1-14-10.5l-13.3-0.7
		c-1.7-0.1-3.3-0.6-4.6-1.6"/>
	<path fill="none" stroke="#CD4535" stroke-width="7" stroke-miterlimit="10" d="M795.2,826.6c-1.8-9.8-11-16.3-20.6-14.6
		c-9.6,1.7-16,11.1-14.2,20.8c2,11.1,10.9,23.6,21.8,21.7C793.3,852.5,797.2,837.7,795.2,826.6z"/>
	<path fill="none" stroke="#CD4535" stroke-width="7" stroke-miterlimit="10" d="M797.2,859.7c1.4,1.1,3,1.9,4.8,2.3l6.9,1.4
		c3.9,0.8,7.1,3.4,8.6,7.1l2.9,7.2c0,0-6.6,6.4-22.1,10"/>
</g>
<g>
	
		<polyline fill="none" stroke="#CD4535" stroke-width="7" stroke-linecap="round" stroke-linejoin="round" stroke-miterlimit="10" points="
		1892,454 1892,480.7 1867.9,480.7 	"/>
	<path fill="none" stroke="#CD4535" stroke-width="7" stroke-linecap="round" stroke-linejoin="round" stroke-miterlimit="10" d="
		M1891.9,480.7c-5.4-5.4-16.4-26.8-40-26.8c-22.2,0-40.2,18-40.2,40.2v2.7"/>
	
		<polyline fill="none" stroke="#CD4535" stroke-width="7" stroke-linecap="round" stroke-linejoin="round" stroke-miterlimit="10" points="
		1811.7,534.3 1811.7,507.5 1835.8,507.5 	"/>
	<path fill="none" stroke="#CD4535" stroke-width="7" stroke-linecap="round" stroke-linejoin="round" stroke-miterlimit="10" d="
		M1811.9,507.5c5.4,5.4,16.4,26.8,40,26.8c22.2,0,40.2-18,40.2-40.2v-2.7"/>
</g>
<path fill="none" stroke="#CD4535" stroke-width="7" stroke-linecap="round" stroke-linejoin="round" stroke-miterlimit="10" d="
	M1454.3,822.3c0.5-2.1-0.8-4.1-2.9-4.6l-9.6-2.2c-1-0.2-1.8-0.8-2.4-1.7l-4-6.5c-0.5-0.9-1.4-1.5-2.4-1.7l-8.1-1.9
	c-1-0.2-2-0.1-2.9,0.5l-6.5,4c-0.9,0.5-1.9,0.7-2.9,0.5l-9.6-2.2c-2.1-0.5-4.1,0.8-4.6,2.9l-7.7,33.4c-0.5,2.1,0.8,4.1,2.9,4.6
	l48.3,11.1c2.1,0.5,4.1-0.8,4.6-2.9L1454.3,822.3z"/>
<circle fill="none" stroke="#CD4535" stroke-width="7" stroke-linecap="round" stroke-linejoin="round" stroke-miterlimit="10" cx="1422.6" cy="832.6" r="13.3"/>
<circle fill="#D9381E" stroke="#CD4535" stroke-width="7" stroke-miterlimit="10" cx="1442.3" cy="823.4" r="1.9"/>
<path fill="none" stroke="#CD4535" stroke-width="7" stroke-linecap="round" stroke-linejoin="round" stroke-miterlimit="10" d="
	M2229.8,651.3c18,8.3,38.5,13,60.2,13v-0.1c71,0,128.5-49.8,128.5-111.3s-57.5-111.3-128.5-111.3s-128.5,49.8-128.5,111.3
	c0,12.4,2.4,24.4,6.7,35.5c4.2,10.8,10.8,20.6,18,30c15.2,19.8,12.8,57.6-7.5,80c20.7,1.3,40.8-4.9,56.8-17"/>
<g>
	<circle fill="none" stroke="#CD4535" stroke-width="7" stroke-miterlimit="10" cx="1191" cy="305.1" r="72.2"/>
	
		<line fill="none" stroke="#CD4535" stroke-width="7" stroke-linecap="round" stroke-linejoin="round" stroke-miterlimit="10" x1="1299.3" y1="413.4" x2="1257.1" y2="371.3"/>
</g>
<g>
	
		<circle fill="none" stroke="#CD4535" stroke-width="7" stroke-linecap="round" stroke-linejoin="round" stroke-miterlimit="10" cx="1566.1" cy="578.9" r="87.6"/>
	<path fill="none" stroke="#CD4535" stroke-width="7" stroke-linecap="round" stroke-linejoin="round" stroke-miterlimit="10" d="
		M1534.4,660.4c4.9-15.5-0.1-32.5-12.8-42.7l-3.8-3"/>
	<path fill="none" stroke="#CD4535" stroke-width="7" stroke-linecap="round" stroke-linejoin="round" stroke-miterlimit="10" d="
		M1610.7,503.6c-5.3,10.8-15.6,18.5-27.7,20.5l-11.5,1.9c-6.3,1-10.9,6.4-10.9,12.7c0,3.8,1.9,7.3,5.1,9.2c3.2,2,7.2,2.1,10.5,0.4
		l17-8.6c4-2,8.7-1.5,12.2,1.3c1.7,1.4,3.5,2.8,5.2,4.3c5.8,4.8,13.8,5.9,20.7,2.9l14.2-6.3"/>
	<path fill="none" stroke="#CD4535" stroke-width="7" stroke-linecap="round" stroke-linejoin="round" stroke-miterlimit="10" d="
		M1511.3,573l4.7-4.6c8-7.7,10-19.7,5-29.6c-3.9-7.9-8.7-17.4-12.8-25.6"/>
	<path fill="none" stroke="#CD4535" stroke-width="7" stroke-linecap="round" stroke-linejoin="round" stroke-miterlimit="10" d="
		M1511.3,573l-2.8,2.7c-4.5,4.4-6.9,10.5-6.6,16.8c0.3,6.3,3.3,12.1,8.2,16.1l7.6,6.1"/>
	<path fill="none" stroke="#CD4535" stroke-width="7" stroke-linecap="round" stroke-linejoin="round" stroke-miterlimit="10" d="
		M1583.5,573c19.5,0,23.1,12.3,23.1,17.3c0,12.2-11.4,15.4-16.8,23c-8.2,11.5-6.2,29.7-6.2,29.7s-23.2-15.3-23.3-40.9
		C1560.2,577.6,1574.9,573,1583.5,573z"/>
</g>
<path fill="none" stroke="#CD4535" stroke-width="7" stroke-linecap="round" stroke-linejoin="round" stroke-miterlimit="10" d="
	M997.9,807.6l-16.3,16.3l-4.1,4.1c-6.7,6.7-6.7,17.7,0,24.4c6.7,6.7,17.7,6.7,24.4,0l24.7-24.7c4.5-4.5,4.5-11.8,0-16.3
	c-4.5-4.5-11.8-4.5-16.3,0l-24.7,24.7c-2.2,2.2-2.2,5.9,0,8.1c2.2,2.2,5.9,2.2,8.1,0l17.5-17.5"/>
<g>
	<circle fill="none" stroke="#CD4535" stroke-width="7" stroke-miterlimit="10" cx="1060.2" cy="1059.2" r="30.7"/>
	<path fill="none" stroke="#CD4535" stroke-width="7" stroke-linecap="round" stroke-linejoin="round" stroke-miterlimit="10" d="
		M1147.3,1072.4c2.9-0.6,4.9-3.1,4.9-6v-14.5c0-2.9-2.1-5.4-4.9-6l-18.4-3.7c-2.2-0.4-3.9-2-4.6-4.1c-1.1-3.3-2.4-6.4-3.9-9.4
		c-1-2-0.9-4.3,0.4-6.2l10.3-15.4c1.6-2.4,1.3-5.7-0.8-7.7l-10.2-10.2c-2.1-2.1-5.3-2.4-7.7-0.8l-15.4,10.3
		c-1.8,1.2-4.2,1.4-6.2,0.4c-3-1.5-6.2-2.8-9.4-3.9c-2.1-0.7-3.7-2.5-4.1-4.6l-3.7-18.4c-0.6-2.9-3.1-4.9-6-4.9H1053
		c-2.9,0-5.4,2.1-6,4.9l-3.7,18.4c-0.4,2.2-2,3.9-4.1,4.6c-3.3,1.1-6.4,2.4-9.4,3.9c-2,1-4.3,0.9-6.2-0.4l-15.4-10.3
		c-2.4-1.6-5.7-1.3-7.7,0.8l-10.2,10.2c-2.1,2.1-2.4,5.3-0.8,7.7l8.4,12.5c2.3,3.5,2.7,8,1,11.8c-1,2.2-1.8,4.4-2.6,6.7
		c-0.7,2.1-2.5,3.7-4.6,4.1l-18.4,3.7c-2.9,0.6-4.9,3.1-4.9,6v14.5c0,2.9,2.1,5.4,4.9,6l18.4,3.7c2.2,0.4,3.9,2,4.6,4.1
		c1.1,3.3,2.4,6.4,3.9,9.4c1,2,0.9,4.3-0.4,6.2l-10.3,15.4c-1.6,2.4-1.3,5.7,0.8,7.7l10.2,10.2c2.1,2.1,5.3,2.4,7.7,0.8l15.4-10.3
		c1.8-1.2,4.2-1.4,6.2-0.4c3,1.5,6.2,2.8,9.4,3.9c2.1,0.7,3.7,2.5,4.1,4.6l3.7,18.4c0.6,2.9,3.1,4.9,6,4.9h14.5c2.9,0,5.4-2.1,6-4.9
		l3.7-18.4c0.4-2.2,2-3.9,4.1-4.6c3.3-1.1,6.4-2.4,9.4-3.9c2-1,4.3-0.9,6.2,0.4l15.4,10.3c2.4,1.6,5.7,1.3,7.7-0.8l10.2-10.2
		c2.1-2.1,2.4-5.3,0.8-7.7l-10.3-15.4c-1.2-1.8-1.4-4.2-0.4-6.2c1.5-3,2.8-6.2,3.9-9.4c0.7-2.1,2.5-3.7,4.6-4.1L1147.3,1072.4z"/>
</g>
<polygon fill="none" stroke="#CD4535" stroke-width="7" stroke-linecap="round" stroke-linejoin="round" stroke-miterlimit="10" points="
	1768.8,1298.4 1781,1391.5 1873.3,1408.6 1788.6,1449 1800.8,1542.1 1736.2,1474 1651.5,1514.3 1696.3,1431.9 1631.7,1363.7 
	1724,1380.9 "/>
<g>
	<path fill="none" stroke="#CD4535" stroke-width="7" stroke-miterlimit="10" d="M56.8,431.6"/>
	<g>
		<path fill="none" stroke="#CD4535" stroke-width="7" stroke-linecap="round" stroke-linejoin="round" stroke-miterlimit="10" d="
			M154.2,413.2c-6.8-3.6-14.6-5.6-22.8-5.6s-16,2-22.8,5.6"/>
		<path fill="none" stroke="#CD4535" stroke-width="7" stroke-linecap="round" stroke-linejoin="round" stroke-miterlimit="10" d="
			M175,479.6c3.6-6.8,5.6-14.6,5.6-22.8s-2-16-5.6-22.8"/>
		<path fill="none" stroke="#CD4535" stroke-width="7" stroke-linecap="round" stroke-linejoin="round" stroke-miterlimit="10" d="
			M87.8,434c-3.6,6.8-5.6,14.6-5.6,22.8s2,16,5.6,22.8"/>
		<path fill="none" stroke="#CD4535" stroke-width="7" stroke-linecap="round" stroke-linejoin="round" stroke-miterlimit="10" d="
			M108.6,500.4c6.8,3.6,14.6,5.6,22.8,5.6s16-2,22.8-5.6"/>
	</g>
	<g>
		<path fill="none" stroke="#CD4535" stroke-width="7" stroke-linecap="round" stroke-linejoin="round" stroke-miterlimit="10" d="
			M119.8,429.7L108.5,413c-1-1.5-2.5-2.5-4.3-2.8c-1.7-0.3-3.5,0.1-5,1.1c-2.5,1.8-5,3.8-7.3,6.1c-2.3,2.3-4.3,4.7-6.1,7.3
			c-1,1.4-1.4,3.2-1.1,5c0.3,1.7,1.3,3.3,2.8,4.3l16.7,11.3"/>
		<path fill="none" stroke="#CD4535" stroke-width="7" stroke-linecap="round" stroke-linejoin="round" stroke-miterlimit="10" d="
			M158.5,445.2l16.7-11.3c1.5-1,2.5-2.5,2.8-4.3c0.3-1.7-0.1-3.5-1.1-5c-1.8-2.5-3.8-5-6.1-7.3c-2.3-2.3-4.7-4.3-7.3-6.1
			c-1.4-1-3.2-1.4-5-1.1c-1.7,0.3-3.3,1.3-4.3,2.8l-11.3,16.7"/>
		<path fill="none" stroke="#CD4535" stroke-width="7" stroke-linecap="round" stroke-linejoin="round" stroke-miterlimit="10" d="
			M143.1,483.9l11.3,16.7c1,1.5,2.5,2.5,4.3,2.8c1.7,0.3,3.5-0.1,5-1.1c2.5-1.8,5-3.8,7.3-6.1c2.3-2.3,4.3-4.7,6.1-7.3
			c1-1.4,1.4-3.2,1.1-5c-0.3-1.7-1.3-3.3-2.8-4.3l-16.7-11.3"/>
		<path fill="none" stroke="#CD4535" stroke-width="7" stroke-linecap="round" stroke-linejoin="round" stroke-miterlimit="10" d="
			M104.3,468.5l-16.7,11.3c-1.5,1-2.5,2.5-2.8,4.3c-0.3,1.7,0.1,3.5,1.1,5c1.8,2.5,3.8,5,6.1,7.3c2.3,2.3,4.7,4.3,7.3,6.1
			c1.4,1,3.2,1.4,5,1.1c1.7-0.3,3.3-1.3,4.3-2.8l11.3-16.7"/>
	</g>
	
		<circle fill="none" stroke="#CD4535" stroke-width="7" stroke-linecap="round" stroke-linejoin="round" stroke-miterlimit="10" cx="131.4" cy="456.8" r="29.5"/>
</g>
<g>
	<path fill="none" stroke="#CD4535" stroke-width="7" stroke-linecap="round" stroke-linejoin="round" stroke-miterlimit="10" d="
		M1007.4,1317.3c-3.7-13.5-17.7-21.5-31.2-17.8l-134.7,36.8c-13.5,3.7-21.5,17.7-17.8,31.2l30.1,110.2c3.7,13.5,17.7,21.5,31.2,17.8
		l134.7-36.8c13.5-3.7,21.5-17.7,17.8-31.2L1007.4,1317.3z"/>
	
		<polyline fill="none" stroke="#CD4535" stroke-width="7" stroke-linecap="round" stroke-linejoin="round" stroke-miterlimit="10" points="
		848.2,1360.8 933.9,1409.7 982.9,1324 	"/>
</g>
<g>
	<path fill="none" stroke="#CD4535" stroke-width="7" stroke-linecap="round" stroke-linejoin="round" stroke-miterlimit="10" d="
		M97.1,1461.3l33.2,52.5c2.6,4.1,8.1,5.4,12.2,2.8l52.5-33.2c4.1-2.6,5.4-8.1,2.8-12.2l-33.2-52.5"/>
	<path fill="none" stroke="#CD4535" stroke-width="7" stroke-linecap="round" stroke-linejoin="round" stroke-miterlimit="10" d="
		M162.6,1398.9L80.1,1451l-9.5-15c-2.6-4.1-1.4-9.6,2.8-12.2l67.5-42.7c4.1-2.6,9.6-1.4,12.2,2.8L162.6,1398.9z"/>
	
		<line fill="none" stroke="#CD4535" stroke-width="7" stroke-linecap="round" stroke-linejoin="round" stroke-miterlimit="10" x1="119.6" y1="1447.1" x2="148" y2="1492"/>
	
		<line fill="none" stroke="#CD4535" stroke-width="7" stroke-linecap="round" stroke-linejoin="round" stroke-miterlimit="10" x1="142.1" y1="1432.8" x2="170.5" y2="1477.8"/>
	<path fill="none" stroke="#CD4535" stroke-width="7" stroke-linecap="round" stroke-linejoin="round" stroke-miterlimit="10" d="
		M95.9,1409.6l-2.4-3.7c-3.9-6.2-2.1-14.4,4.1-18.4c6.2-3.9,14.4-2.1,18.4,4.1l2.4,3.7"/>
</g>
<g>
	
		<circle fill="none" stroke="#CD4535" stroke-width="7" stroke-linecap="round" stroke-linejoin="round" stroke-miterlimit="10" cx="1932.2" cy="837" r="90.3"/>
	<path fill="none" stroke="#CD4535" stroke-width="7" stroke-linecap="round" stroke-linejoin="round" stroke-miterlimit="10" d="
		M1864.1,743c-8.2-2.9-17.2-3.5-26.2-0.8c-22,6.7-34.4,30-27.7,52c1.9,6.3,5.4,11.8,9.6,16.3"/>
	<path fill="none" stroke="#CD4535" stroke-width="7" stroke-linecap="round" stroke-linejoin="round" stroke-miterlimit="10" d="
		M1936.3,721c5.1-7,12.4-12.5,21.3-15.2c22-6.7,45.3,5.7,52,27.7c1.9,6.3,2.1,12.8,1.1,18.9"/>
	
		<polyline fill="none" stroke="#CD4535" stroke-width="7" stroke-linecap="round" stroke-linejoin="round" stroke-miterlimit="10" points="
		1900.6,853.9 1940.9,841.6 1924.6,788.5 	"/>
	
		<line fill="none" stroke="#CD4535" stroke-width="7" stroke-linecap="round" stroke-linejoin="round" stroke-miterlimit="10" x1="1885.5" y1="945.7" x2="1898.7" y2="920.8"/>
	
		<line fill="none" stroke="#CD4535" stroke-width="7" stroke-linecap="round" stroke-linejoin="round" stroke-miterlimit="10" x1="2031.6" y1="901.1" x2="2006.7" y2="887.8"/>
</g>
<g>
	<path fill="none" stroke="#CD4535" stroke-width="7" stroke-linecap="round" stroke-linejoin="round" stroke-miterlimit="10" d="
		M1261.5,1412.1l58.7,22c-4.4,11.8,1.6,24.9,13.4,29.4c11.8,4.4,24.9-1.6,29.4-13.4l58.7,22l36-96.1c2.2-5.9-0.8-12.5-6.7-14.7
		l-138.8-52.1c-5.9-2.2-12.5,0.8-14.7,6.7L1261.5,1412.1z"/>
	<path fill="none" stroke="#CD4535" stroke-width="7" stroke-linecap="round" stroke-linejoin="round" stroke-miterlimit="10" d="
		M1413.7,1493.5l-8,21.4c-2.2,5.9-8.8,8.9-14.7,6.7l-138.8-52.1c-5.9-2.2-8.9-8.8-6.7-14.7l8-21.4"/>
	
		<line fill="none" stroke="#CD4535" stroke-width="7" stroke-linecap="round" stroke-linejoin="round" stroke-miterlimit="10" x1="1321.6" y1="1349.3" x2="1417.7" y2="1385.4"/>
	
		<line fill="none" stroke="#CD4535" stroke-width="7" stroke-linecap="round" stroke-linejoin="round" stroke-miterlimit="10" x1="1313.6" y1="1370.7" x2="1409.7" y2="1406.7"/>
	
		<line fill="none" stroke="#CD4535" stroke-width="7" stroke-linecap="round" stroke-linejoin="round" stroke-miterlimit="10" x1="1305.6" y1="1392" x2="1401.7" y2="1428.1"/>
</g>
<g>
	<path fill="none" stroke="#CD4535" stroke-width="7" stroke-linecap="round" stroke-linejoin="round" stroke-miterlimit="10" d="
		M2263.3,257.2c5.1-7.4,3.2-17.4-4.1-22.5l-146.6-101.1c-7.4-5.1-17.4-3.2-22.5,4.1l-55.1,80c-5.1,7.4-3.2,17.4,4.1,22.5
		l146.6,101.1c7.4,5.1,17.4,3.2,22.5-4.1L2263.3,257.2z"/>
	<path fill="none" stroke="#CD4535" stroke-width="7" stroke-linecap="round" stroke-linejoin="round" stroke-miterlimit="10" d="
		M2125.9,142.7l32.2-46.6c22.8-33.1,68.2-41.5,101.3-18.6c33.1,22.8,41.5,68.2,18.6,101.3l-32.2,46.6"/>
	<path fill="none" stroke="#CD4535" stroke-width="7" stroke-linecap="round" stroke-linejoin="round" stroke-miterlimit="10" d="
		M2171,134.5l13.8-20c12.7-18.4,37.9-23,56.3-10.3c18.4,12.7,23,37.9,10.3,56.3l-13.8,20"/>
</g>
<path fill="none" stroke="#CD4535" stroke-width="7" stroke-linecap="round" stroke-linejoin="round" stroke-miterlimit="10" d="
	M2081.3,1025.5c-57.1,57.1-100,114.1-141.3,183.5c-21.3-21.3-45-40.3-70.4-56.5"/>
<g>
	<path fill="none" stroke="#CD4535" stroke-width="7" stroke-miterlimit="10" d="M1975.5,535.3"/>
	<g>
		<path fill="none" stroke="#CD4535" stroke-width="7" stroke-linecap="round" stroke-linejoin="round" stroke-miterlimit="10" d="
			M2037.7,521l35.6-35.6c4.7-4.7,12.3-4.7,17.1,0c4.6,4.6,4.6,12.2,0,16.8l-35.8,35.8"/>
		
			<polyline fill="none" stroke="#CD4535" stroke-width="7" stroke-linecap="round" stroke-linejoin="round" stroke-miterlimit="10" points="
			2031,527.6 2021.3,554.2 2047.9,544.5 		"/>
	</g>
	<path fill="none" stroke="#CD4535" stroke-width="7" stroke-linecap="round" stroke-linejoin="round" stroke-miterlimit="10" d="
		M2031,527.6c8.4,2,15,8.5,16.9,16.9"/>
</g>
<g>
	
		<line fill="none" stroke="#CD4535" stroke-width="7" stroke-linecap="round" stroke-linejoin="round" stroke-miterlimit="10" x1="1604.5" y1="937.3" x2="1580.2" y2="993.3"/>
	<path fill="none" stroke="#CD4535" stroke-width="7" stroke-linecap="round" stroke-linejoin="round" stroke-miterlimit="10" d="
		M1663.4,940.5l8-18.6c4.5-10.5,4.7-22.4,0.5-33l-2.7-6.9c-4.2-10.6-4-22.5,0.5-33l9.8-22.7c2.4-5.5-0.1-11.8-5.6-14.2l-36.2-15.7
		c-5.5-2.4-11.8,0.1-14.2,5.6l-9.8,22.7c-4.5,10.5-13.1,18.8-23.7,23l-6.9,2.7c-10.6,4.2-19.2,12.5-23.7,23l-8,18.6L1663.4,940.5z"
		/>
</g>
<g>
	<path fill="none" stroke="#CD4535" stroke-width="7" stroke-linecap="round" stroke-linejoin="round" stroke-miterlimit="10" d="
		M1313.1,114.4l14.9,2.7l5.4-29.7c1-5.5-2.6-10.7-8.1-11.7l-54.5-10c-5.5-1-10.7,2.6-11.7,8.1l-5.4,29.7l14.9,2.7"/>
	
		<polyline fill="none" stroke="#CD4535" stroke-width="7" stroke-linecap="round" stroke-linejoin="round" stroke-miterlimit="10" points="
		1277.6,56.7 1279.4,46.8 1324,55 1322.2,64.9 	"/>
	
		<rect x="1268.2" y="95.2" transform="matrix(0.9836 0.1803 -0.1803 0.9836 41.0297 -230.868)" fill="none" stroke="#CD4535" stroke-width="7" stroke-linecap="round" stroke-linejoin="round" stroke-miterlimit="10" width="45.3" height="30.2"/>
	
		<line fill="none" stroke="#CD4535" stroke-width="7" stroke-linecap="round" stroke-linejoin="round" stroke-miterlimit="10" x1="1266.3" y1="90.5" x2="1320.8" y2="100.5"/>
</g>
<g>
	<path fill="none" stroke="#CD4535" stroke-width="7" stroke-linecap="round" stroke-linejoin="round" stroke-miterlimit="10" d="
		M1236.1,787.4c-12.3,12.3-32.2,12.3-44.5,0L1069.2,665c-12.3-12.3-12.3-32.2,0-44.5l100.2-100.2c12.3-12.3,32.2-12.3,44.5,0
		l122.4,122.4c12.3,12.3,12.3,32.2,0,44.5L1236.1,787.4z"/>
	
		<polyline fill="none" stroke="#CD4535" stroke-width="7" stroke-linecap="round" stroke-linejoin="round" stroke-miterlimit="10" points="
		1091.5,642.7 1180.5,642.7 1180.5,687.2 	"/>
	
		<polyline fill="none" stroke="#CD4535" stroke-width="7" stroke-linecap="round" stroke-linejoin="round" stroke-miterlimit="10" points="
		1136,687.2 1247.2,687.2 1247.2,731.8 	"/>
	
		<circle fill="none" stroke="#CD4535" stroke-width="7" stroke-linecap="round" stroke-linejoin="round" stroke-miterlimit="10" cx="1191.6" cy="587.1" r="15.7"/>
</g>
<g>
	<path fill="none" stroke="#CD4535" stroke-width="7" stroke-linecap="round" stroke-linejoin="round" stroke-miterlimit="10" d="
		M132.2,67.7c1.2-8.2,8.8-13.9,17-12.6l192.7,28.3c8.2,1.2,13.9,8.8,12.6,17l-6.5,44.5l-222.4-32.7L132.2,67.7z"/>
	<path fill="none" stroke="#CD4535" stroke-width="7" stroke-linecap="round" stroke-linejoin="round" stroke-miterlimit="10" d="
		M343.7,174.5l-17.4,118.6c-1.2,8.2-8.8,13.9-17,12.6l-192.7-28.3c-8.2-1.2-13.9-8.8-12.6-17l17.4-118.6"/>
	
		<line fill="none" stroke="#CD4535" stroke-width="7" stroke-linecap="round" stroke-linejoin="round" stroke-miterlimit="10" x1="163.6" y1="163.2" x2="161.4" y2="178"/>
	
		<line fill="none" stroke="#CD4535" stroke-width="7" stroke-linecap="round" stroke-linejoin="round" stroke-miterlimit="10" x1="252.5" y1="176.3" x2="250.3" y2="191.1"/>
	
		<line fill="none" stroke="#CD4535" stroke-width="7" stroke-linecap="round" stroke-linejoin="round" stroke-miterlimit="10" x1="297" y1="182.8" x2="294.8" y2="197.6"/>
	
		<line fill="none" stroke="#CD4535" stroke-width="7" stroke-linecap="round" stroke-linejoin="round" stroke-miterlimit="10" x1="154.9" y1="222.5" x2="152.7" y2="237.3"/>
	
		<line fill="none" stroke="#CD4535" stroke-width="7" stroke-linecap="round" stroke-linejoin="round" stroke-miterlimit="10" x1="199.3" y1="229.1" x2="197.2" y2="243.9"/>
	
		<line fill="none" stroke="#CD4535" stroke-width="7" stroke-linecap="round" stroke-linejoin="round" stroke-miterlimit="10" x1="243.8" y1="235.6" x2="241.6" y2="250.4"/>
	
		<line fill="none" stroke="#CD4535" stroke-width="7" stroke-linecap="round" stroke-linejoin="round" stroke-miterlimit="10" x1="288.3" y1="242.1" x2="286.1" y2="256.9"/>
	<path fill="none" stroke="#CD4535" stroke-width="7" stroke-linecap="round" stroke-linejoin="round" stroke-miterlimit="10" d="
		M220.7,186.7c-1.2,8.2-8.8,13.9-17,12.6c-8.2-1.2-13.9-8.8-12.6-17l2.2-14.8c1.2-8.2,8.8-13.9,17-12.6c8.2,1.2,13.9,8.8,12.6,17
		L220.7,186.7z"/>
</g>
<g>
	
		<line fill="none" stroke="#CD4535" stroke-width="7" stroke-linecap="round" stroke-linejoin="round" stroke-miterlimit="10" x1="523" y1="248.7" x2="523" y2="300"/>
	
		<line fill="none" stroke="#CD4535" stroke-width="7" stroke-linecap="round" stroke-linejoin="round" stroke-miterlimit="10" x1="497.4" y1="274.3" x2="548.7" y2="274.3"/>
</g>
<g>
	<path fill="none" stroke="#CD4535" stroke-width="7" stroke-linecap="round" stroke-linejoin="round" stroke-miterlimit="10" d="
		M2303.3,1229.8l181,70.4c5.8,2.2,10.3,6.8,12.5,12.6s1.8,12.2-1.1,17.7l-34,65.2c-9.5,18.2-30.4,27.3-50.1,21.7l-133.9-37.4
		c-19.7-5.5-32.9-24.1-31.6-44.6l9.5-146.9c0.7-10.2-5.9-19.5-15.8-22.3l-29.3-8.2"/>
	
		<circle fill="none" stroke="#CD4535" stroke-width="7" stroke-linecap="round" stroke-linejoin="round" stroke-miterlimit="10" cx="2265" cy="1444.5" r="21.7"/>
	
		<circle fill="none" stroke="#CD4535" stroke-width="7" stroke-linecap="round" stroke-linejoin="round" stroke-miterlimit="10" cx="2391.3" cy="1479.5" r="21.7"/>
</g>
<g>
	
		<line fill="none" stroke="#CD4535" stroke-width="7" stroke-linecap="round" stroke-linejoin="round" stroke-miterlimit="10" x1="1705.5" y1="167.1" x2="1705.5" y2="264.8"/>
	
		<line fill="none" stroke="#CD4535" stroke-width="7" stroke-linecap="round" stroke-linejoin="round" stroke-miterlimit="10" x1="1770.6" y1="167.1" x2="1770.6" y2="264.8"/>
	
		<line fill="none" stroke="#CD4535" stroke-width="7" stroke-linecap="round" stroke-linejoin="round" stroke-miterlimit="10" x1="1738" y1="167.1" x2="1738" y2="264.8"/>
	
		<line fill="none" stroke="#CD4535" stroke-width="7" stroke-linecap="round" stroke-linejoin="round" stroke-miterlimit="10" x1="1852.1" y1="167.1" x2="1852.1" y2="264.8"/>
	
		<line fill="none" stroke="#CD4535" stroke-width="7" stroke-linecap="round" stroke-linejoin="round" stroke-miterlimit="10" x1="1819.5" y1="167.1" x2="1819.5" y2="264.8"/>
	
		<line fill="none" stroke="#CD4535" stroke-width="7" stroke-linecap="round" stroke-linejoin="round" stroke-miterlimit="10" x1="1884.7" y1="167.1" x2="1884.7" y2="264.8"/>
	
		<line fill="none" stroke="#CD4535" stroke-width="7" stroke-linecap="round" stroke-linejoin="round" stroke-miterlimit="10" x1="1689.2" y1="69.3" x2="1738" y2="69.3"/>
	
		<line fill="none" stroke="#CD4535" stroke-width="7" stroke-linecap="round" stroke-linejoin="round" stroke-miterlimit="10" x1="1852.1" y1="69.3" x2="1901" y2="69.3"/>
	<path fill="none" stroke="#CD4535" stroke-width="7" stroke-linecap="round" stroke-linejoin="round" stroke-miterlimit="10" d="
		M1819.5,69.3"/>
	
		<polyline fill="none" stroke="#CD4535" stroke-width="7" stroke-linecap="round" stroke-linejoin="round" stroke-miterlimit="10" points="
		1770.6,20.4 1795.1,44.9 1819.5,20.4 	"/>
	<path fill="none" stroke="#CD4535" stroke-width="7" stroke-linecap="round" stroke-linejoin="round" stroke-miterlimit="10" d="
		M1819.5,69.3l0,16.3c0,9,7.3,16.3,16.3,16.3h65.2v32.6h-211.8v-32.6h65.2c9,0,16.3-7.3,16.3-16.3l0-16.3H1819.5"/>
</g>
<g>
	
		<polygon fill="none" stroke="#CD4535" stroke-width="7" stroke-linecap="round" stroke-linejoin="round" stroke-miterlimit="10" points="
		2405.1,308.3 2399.5,319.6 2388.2,325.3 2399.5,331 2405.1,342.3 2410.8,331 2422.1,325.3 2410.8,319.6 	"/>
	
		<polygon fill="none" stroke="#CD4535" stroke-width="7" stroke-linecap="round" stroke-linejoin="round" stroke-miterlimit="10" points="
		2450.4,314 2444.8,331 2427.8,336.6 2444.8,342.3 2450.4,359.3 2456.1,342.3 2473.1,336.6 2456.1,331 	"/>
	
		<polygon fill="none" stroke="#CD4535" stroke-width="7" stroke-linecap="round" stroke-linejoin="round" stroke-miterlimit="10" points="
		2433.4,274.3 2427.8,291.3 2410.8,297 2427.8,302.7 2433.4,319.6 2439.1,302.7 2456.1,297 2439.1,291.3 	"/>
</g>
<g>
	
		<line fill="none" stroke="#CD4535" stroke-width="7" stroke-linecap="round" stroke-linejoin="round" stroke-miterlimit="10" x1="778.2" y1="1050.3" x2="778.2" y2="1050.3"/>
	<path fill="none" stroke="#CD4535" stroke-width="7" stroke-linecap="round" stroke-linejoin="round" stroke-miterlimit="10" d="
		M689,1061.5l7.3-7.3c5.2-5.2,13.7-5.2,18.9,0c1.3,1.3,2.8,2.8,4.3,4.3c5.2,5.2,13.7,5.2,18.9,0l24-24c8.7-8.7,22.8-8.7,31.6,0
		c8.7,8.7,8.7,22.8,0,31.6l-24,24c-5.2,5.2-5.2,13.7,0,18.9l4.3,4.3c5.2,5.2,5.2,13.7,0,18.9l-7.3,7.3"/>
	
		<line fill="none" stroke="#CD4535" stroke-width="7" stroke-linecap="round" stroke-linejoin="round" stroke-miterlimit="10" x1="683.4" y1="1117.3" x2="658.3" y2="1142.4"/>
	
		<line fill="none" stroke="#CD4535" stroke-width="7" stroke-linecap="round" stroke-linejoin="round" stroke-miterlimit="10" x1="711.3" y1="1145.2" x2="686.2" y2="1170.3"/>
	<path fill="none" stroke="#CD4535" stroke-width="7" stroke-linecap="round" stroke-linejoin="round" stroke-miterlimit="10" d="
		M677.8,1072.6c-15.1,15.1-31.9,28.2-50.2,39.1l89.3,89.3c10.8-18.4,23.9-35.3,38.9-50.3L677.8,1072.6z"/>
</g>
<g>
	<path fill="none" stroke="#CD4535" stroke-width="7" stroke-linecap="round" stroke-linejoin="round" stroke-miterlimit="10" d="
		M860.3,460.9c16.8-1.8,33.2,6.4,41.9,20.9c23.8,39.5,38.7,83.8,43.5,129.7c1.8,16.8-6.4,33.2-20.9,41.9
		c-39.5,23.8-83.8,38.7-129.7,43.5c-16.8,1.8-33.2-6.4-41.9-20.9c-23.8-39.5-38.7-83.8-43.5-129.7c-1.8-16.8,6.4-33.2,20.9-41.9
		C770.1,480.6,814.4,465.7,860.3,460.9z"/>
	<path fill="none" stroke="#CD4535" stroke-width="7" stroke-linecap="round" stroke-linejoin="round" stroke-miterlimit="10" d="
		M804.8,624.9c25.5,11.9,55.8,1.7,68.9-23.1"/>
	
		<circle fill="none" stroke="#CD4535" stroke-width="7" stroke-linecap="round" stroke-linejoin="round" stroke-miterlimit="10" cx="772.6" cy="597.3" r="7.3"/>
	
		<circle fill="none" stroke="#CD4535" stroke-width="7" stroke-linecap="round" stroke-linejoin="round" stroke-miterlimit="10" cx="882.8" cy="560.4" r="7.3"/>
</g>
<g>
	<path fill="none" stroke="#CD4535" stroke-width="7" stroke-linecap="round" stroke-linejoin="round" stroke-miterlimit="10" d="
		M108.6,1150.6c4.1-8,0.9-17.9-7.1-22s-17.9-0.9-22,7.1c-5.2,10.2-5.6,26,2.9,30.3C90.7,1170.3,103.4,1160.9,108.6,1150.6z"/>
	<path fill="none" stroke="#CD4535" stroke-width="7" stroke-linecap="round" stroke-linejoin="round" stroke-miterlimit="10" d="
		M101.5,1160c5.7-6.6,3.9-11.3-0.2-15.6c-2.7-2.9-4.4-6.8-2.5-10.4c-1.8,3.6-6,4.5-9.9,4c-5.9-0.7-10.8,0.5-12.8,9"/>
	<path fill="none" stroke="#CD4535" stroke-width="7" stroke-linecap="round" stroke-linejoin="round" stroke-miterlimit="10" d="
		M79.6,1135.8c-4.7,9.2-12.6,14.5-12.6,14.5l9.3,7.4"/>
	<path fill="none" stroke="#CD4535" stroke-width="7" stroke-linecap="round" stroke-linejoin="round" stroke-miterlimit="10" d="
		M108.6,1150.6c-4.7,9.2-4.3,18.7-4.3,18.7l-11.4-3.2"/>
	<path fill="none" stroke="#CD4535" stroke-width="7" stroke-linecap="round" stroke-linejoin="round" stroke-miterlimit="10" d="
		M72,1166c-1,0.3-2.1,0.4-3.2,0.2l-10.5-2.3c-3.4-0.7-6.9,0.5-9.2,3.2l-3.2,3.9c0,0,3,9.4,23.8,20c20.8,10.6,30.2,7.6,30.2,7.6
		l1.2-4.7c0.8-3.3-0.2-6.8-2.6-9.1l-8.2-7.7c-0.8-0.7-1.3-1.6-1.6-2.6l0-0.1"/>
</g>
<g>
	<path fill="none" stroke="#CD4535" stroke-width="7" stroke-linecap="round" stroke-linejoin="round" stroke-miterlimit="10" d="
		M1554.4,129c-22.4,52.3-35.4,100.8-44.2,157c-19.6-8.4-40-14.5-60.9-18.5"/>
	<path fill="none" stroke="#CD4535" stroke-width="7" stroke-linecap="round" stroke-linejoin="round" stroke-miterlimit="10" d="
		M1515.6,166l-92.3,37c-10.2,4.1-15.1,15.7-11.1,25.9l40.7,101.5c4.1,10.2,15.7,15.1,25.9,11.1l101.5-40.7
		c10.2-4.1,15.1-15.7,11.1-25.9l-35.2-87.7"/>
</g>
<g>
	<path fill="none" stroke="#CD4535" stroke-width="7" stroke-miterlimit="10" d="M490.4,801.1c6.2-15.1-0.9-32.4-16-38.7
		c-15.1-6.2-32.4,0.9-38.7,16c-2.9,7-12.2,29.4-15.1,36.5c-6.2,15.1,0.9,32.4,16,38.7c15.1,6.2,32.4-0.9,38.7-16
		C478.3,830.5,487.5,808.1,490.4,801.1z"/>
	<path fill="none" stroke="#CD4535" stroke-width="7" stroke-linecap="round" stroke-linejoin="round" stroke-miterlimit="10" d="
		M497.4,835.9l-3.8,9.1c-10.4,25.2-39.3,37.1-64.4,26.7c-25.2-10.4-37.1-39.3-26.7-64.4l3.8-9.1"/>
	
		<line fill="none" stroke="#CD4535" stroke-width="7" stroke-linecap="round" stroke-linejoin="round" stroke-miterlimit="10" x1="381.4" y1="884.1" x2="454.3" y2="914.2"/>
	
		<line fill="none" stroke="#CD4535" stroke-width="7" stroke-linecap="round" stroke-linejoin="round" stroke-miterlimit="10" x1="429.2" y1="871.8" x2="417.9" y2="899.2"/>
</g>
<line fill="none" stroke="#CD4535" stroke-width="7" stroke-linecap="round" stroke-linejoin="round" stroke-miterlimit="10" x1="1523.8" y1="335.9" x2="1523.8" y2="340.7"/>
<g>
	<path fill="none" stroke="#CD4535" stroke-width="7" stroke-linecap="round" stroke-linejoin="round" stroke-miterlimit="10" d="
		M2481.2,1002.4"/>
	<path fill="none" stroke="#CD4535" stroke-width="7" stroke-linecap="round" stroke-linejoin="round" stroke-miterlimit="10" d="
		M2533,999.5c0,0-29.1-56.3-103.6-56.3c-74.5,0-103.6,55.5-103.6,55.5"/>
	<path fill="none" stroke="#CD4535" stroke-width="7" stroke-linecap="round" stroke-linejoin="round" stroke-miterlimit="10" d="
		M2318.4,995c7.4,7.6,22.2,7.4,22.2,7.4s14.8,0,22.2-7.4c7.6,7.4,22.2,7.4,22.2,7.4s14.7,0,22.2-7.4c7.5,7.4,22.2,7.4,22.2,7.4
		s14.6,0,22.2-7.4c7.4,7.6,22.2,7.4,22.2,7.4s14.8,0.2,22.2-7.4c7.4,7.6,22.2,7.4,22.2,7.4s14.6-0.2,22.2-7.4"/>
	
		<line fill="none" stroke="#CD4535" stroke-width="7" stroke-linecap="round" stroke-linejoin="round" stroke-miterlimit="10" x1="2406.7" y1="955.6" x2="2387.5" y2="884.1"/>
	<path fill="none" stroke="#CD4535" stroke-width="7" stroke-linecap="round" stroke-linejoin="round" stroke-miterlimit="10" d="
		M2455.2,850.7c0,0-9.4-2.1-21.2,5.8c-11.8,7.9-17.9,20-17.9,20s-13-4-30.4,0.7c-17.4,4.7-26.7,14.6-26.7,14.6s-14.1-8-25.3-8.6
		c-11.2-0.6-21.4,5.7-21.4,5.7c-5.5-20.6,13.7-65,56.2-76.3C2410.8,801.3,2449.5,829.2,2455.2,850.7z"/>
	<path fill="none" stroke="#CD4535" stroke-width="7" stroke-linecap="round" stroke-linejoin="round" stroke-miterlimit="10" d="
		M2368.4,812.6c0,0-25.1,20.6-9.4,79.1"/>
	<path fill="none" stroke="#CD4535" stroke-width="7" stroke-linecap="round" stroke-linejoin="round" stroke-miterlimit="10" d="
		M2416.1,876.5c-15.7-58.5-47.8-63.8-47.8-63.8"/>
	
		<circle fill="none" stroke="#CD4535" stroke-width="7" stroke-linecap="round" stroke-linejoin="round" stroke-miterlimit="10" cx="2488.6" cy="824.8" r="14.8"/>
	
		<line fill="none" stroke="#CD4535" stroke-width="7" stroke-linecap="round" stroke-linejoin="round" stroke-miterlimit="10" x1="2488.6" y1="869.2" x2="2488.6" y2="884"/>
	
		<line fill="none" stroke="#CD4535" stroke-width="7" stroke-linecap="round" stroke-linejoin="round" stroke-miterlimit="10" x1="2547.8" y1="824.8" x2="2533" y2="824.8"/>
	
		<line fill="none" stroke="#CD4535" stroke-width="7" stroke-linecap="round" stroke-linejoin="round" stroke-miterlimit="10" x1="2457.2" y1="793.4" x2="2446.8" y2="782.9"/>
	
		<line fill="none" stroke="#CD4535" stroke-width="7" stroke-linecap="round" stroke-linejoin="round" stroke-miterlimit="10" x1="2530.5" y1="866.7" x2="2520" y2="856.2"/>
	
		<line fill="none" stroke="#CD4535" stroke-width="7" stroke-linecap="round" stroke-linejoin="round" stroke-miterlimit="10" x1="2530.5" y1="782.9" x2="2520" y2="793.4"/>
</g>
<g>
	<path fill="none" stroke="#CD4535" stroke-width="7" stroke-linecap="round" stroke-linejoin="round" stroke-miterlimit="10" d="
		M1366.2,1124.4c2.9,6.4,10.4,9.2,16.7,6.3l63.5-28.6c6.4-2.9,9.2-10.4,6.3-16.7l-23.4-51.9l-86.5,39
		C1342.7,1072.5,1360.9,1112.7,1366.2,1124.4z"/>
	<path fill="none" stroke="#CD4535" stroke-width="7" stroke-linecap="round" stroke-linejoin="round" stroke-miterlimit="10" d="
		M1337.5,1061l-2.6-5.8c-1.4-3.2,0-6.9,3.2-8.4l34.6-15.6c3.2-1.4,6.9,0,8.4,3.2l2.6,5.8"/>
</g>
<g>
	<path fill="none" stroke="#CD4535" stroke-width="7" stroke-linecap="round" stroke-linejoin="round" stroke-miterlimit="10" d="
		M2513.8,113.4c-1.2-1.8-3.2-2.8-5.3-2.8l-4.5,0.1l8.9-19.2c4.1-8.8,0.3-19.3-8.6-23.4l-56.8-26.4c-8.4-3.9-18.3-0.3-22.2,8.1
		l-26.4,56.8c-4.1,8.8-0.3,19.3,8.6,23.4l56,26c8.8,4.1,19.3,0.3,23.4-8.6l8.9-19.2l2.8,3.5c1.3,1.7,3.4,2.5,5.5,2.3
		c2.1-0.3,4-1.6,4.9-3.5l5.2-11.3C2515.2,117.5,2515,115.2,2513.8,113.4z"/>
	
		<circle fill="none" stroke="#CD4535" stroke-width="7" stroke-linecap="round" stroke-linejoin="round" stroke-miterlimit="10" cx="2456" cy="99.1" r="35.6"/>
	
		<polygon fill="none" stroke="#CD4535" stroke-width="7" stroke-linecap="round" stroke-linejoin="round" stroke-miterlimit="10" points="
		2477.2,91.4 2452.8,90.5 2434.7,106.9 2459.1,107.7 	"/>
	
		<circle fill="none" stroke="#CD4535" stroke-width="7" stroke-linecap="round" stroke-linejoin="round" stroke-miterlimit="10" cx="2441.7" cy="60" r="6.1"/>
	
		<line fill="none" stroke="#CD4535" stroke-width="7" stroke-linecap="round" stroke-linejoin="round" stroke-miterlimit="10" x1="2452.8" y1="90.5" x2="2459.1" y2="107.7"/>
</g>
<g>
	<path fill="none" stroke="#CD4535" stroke-width="7" stroke-linecap="round" stroke-linejoin="round" stroke-miterlimit="10" d="
		M283.4,875c6,15-1.4,31.9-16.3,37.9l-149.2,59.3c-15,6-31.9-1.4-37.9-16.3L31.4,833.8c-6-15,1.4-31.9,16.3-37.9L197,736.6
		c15-6,31.9,1.4,37.9,16.3L283.4,875z"/>
	
		<line fill="none" stroke="#CD4535" stroke-width="7" stroke-linecap="round" stroke-linejoin="round" stroke-miterlimit="10" x1="107.1" y1="945" x2="101.7" y2="931.5"/>
	
		<line fill="none" stroke="#CD4535" stroke-width="7" stroke-linecap="round" stroke-linejoin="round" stroke-miterlimit="10" x1="134.2" y1="934.3" x2="128.8" y2="920.7"/>
	
		<line fill="none" stroke="#CD4535" stroke-width="7" stroke-linecap="round" stroke-linejoin="round" stroke-miterlimit="10" x1="256.2" y1="885.8" x2="250.9" y2="872.2"/>
	
		<line fill="none" stroke="#CD4535" stroke-width="7" stroke-linecap="round" stroke-linejoin="round" stroke-miterlimit="10" x1="229.1" y1="896.5" x2="223.7" y2="883"/>
	
		<line fill="none" stroke="#CD4535" stroke-width="7" stroke-linecap="round" stroke-linejoin="round" stroke-miterlimit="10" x1="50.6" y1="763.3" x2="122.4" y2="766.2"/>
	
		<line fill="none" stroke="#CD4535" stroke-width="7" stroke-linecap="round" stroke-linejoin="round" stroke-miterlimit="10" x1="172.6" y1="714.8" x2="122.4" y2="766.2"/>
	<path fill="none" stroke="#CD4535" stroke-width="7" stroke-linecap="round" stroke-linejoin="round" stroke-miterlimit="10" d="
		M185.1,777.3c12.4-3.1,25.4,2.3,32,13.3c5.4,9,9.3,18.8,11.5,29c2.7,12.4-2.9,25-13.9,31.4c-31.6,18.4-65.7,31.9-101.2,40.2
		c-12.3,2.9-25.1-2.5-31.6-13.3c-5.4-9-9.3-18.8-11.6-29c-2.7-12.5,3-25.3,14.1-31.6C115.9,799.4,149.8,785.9,185.1,777.3z"/>
</g>
<g>
	<path fill="none" stroke="#CD4535" stroke-width="7" stroke-linecap="round" stroke-linejoin="round" stroke-miterlimit="10" d="
		M954.5,303.6v15.9c0,8.8-7.1,15.9-15.9,15.9h-15.9c-8.8,0-15.9-7.1-15.9-15.9v-15.9"/>
	<path fill="none" stroke="#CD4535" stroke-width="7" stroke-linecap="round" stroke-linejoin="round" stroke-miterlimit="10" d="
		M906.7,271.7h47.8c26.2-23.8,63.7-52.2,63.7-95.6c0-48.4-39.2-79.7-87.6-79.7c-48.4,0-87.6,31.3-87.6,79.7
		C843,219.3,880.5,247.7,906.7,271.7z"/>
	<path fill="none" stroke="#CD4535" stroke-width="7" stroke-linecap="round" stroke-linejoin="round" stroke-miterlimit="10" d="
		M938.6,271.7c12.3-36.5,31.9-85.3,31.9-111.5c0-35.2-17.8-63.7-39.8-63.7c-22,0-39.8,28.5-39.8,63.7c0,26.1,19.6,75.1,31.9,111.5
		H938.6z"/>
	<path fill="none" stroke="#CD4535" stroke-width="7" stroke-linecap="round" stroke-linejoin="round" stroke-miterlimit="10" d="
		M811.1,144.2c-17.6,0-31.9,14.3-31.9,31.9c-17.6,0-31.9,14.3-31.9,31.9c0,17.6,14.3,31.9,31.9,31.9s47.8,0,47.8,0"/>
</g>
<g>
	<path fill="none" stroke="#CD4535" stroke-width="7" stroke-linecap="round" stroke-linejoin="round" stroke-miterlimit="10" d="
		M612.7,1385.7c0,2.4-2,4.4-4.4,4.4h-8.8c-2.4,0-4.4-2-4.4-4.4v-8.8c0-2.4,2-4.4,4.4-4.4h8.8c2.4,0,4.4,2,4.4,4.4V1385.7z"/>
	
		<line fill="none" stroke="#CD4535" stroke-width="7" stroke-linecap="round" stroke-linejoin="round" stroke-miterlimit="10" x1="630.4" y1="1381.3" x2="665.7" y2="1381.3"/>
	<path fill="none" stroke="#CD4535" stroke-width="7" stroke-linecap="round" stroke-linejoin="round" stroke-miterlimit="10" d="
		M612.7,1421c0,2.4-2,4.4-4.4,4.4h-8.8c-2.4,0-4.4-2-4.4-4.4v-8.8c0-2.4,2-4.4,4.4-4.4h8.8c2.4,0,4.4,2,4.4,4.4V1421z"/>
	
		<line fill="none" stroke="#CD4535" stroke-width="7" stroke-linecap="round" stroke-linejoin="round" stroke-miterlimit="10" x1="630.4" y1="1416.6" x2="665.7" y2="1416.6"/>
	<path fill="none" stroke="#CD4535" stroke-width="7" stroke-linecap="round" stroke-linejoin="round" stroke-miterlimit="10" d="
		M683.4,1434.3c0,9.8-7.9,17.7-17.7,17.7H595c-9.8,0-17.7-7.9-17.7-17.7v-70.7c0-9.8,7.9-17.7,17.7-17.7h70.7
		c9.8,0,17.7,7.9,17.7,17.7V1434.3z"/>
	<path fill="none" stroke="#CD4535" stroke-width="7" stroke-linecap="round" stroke-linejoin="round" stroke-miterlimit="10" d="
		M577.4,1363.6h-8.8c-9.8,0-17.7,7.9-17.7,17.7v79.5c0,9.8,7.9,17.7,17.7,17.7H648c9.8,0,17.7-7.9,17.7-17.7v-8.8"/>
</g>
<path fill="none" stroke="#CD4535" stroke-width="7" stroke-linecap="round" stroke-linejoin="round" stroke-miterlimit="10" d="
	M672.6,116.7c0,0-46.8,3.3-59.6-12.4c-7.1-8.7-5.8-21.5,2.9-28.5c6.1-5,14.3-5.7,21-2.8c-1.6-7.2,0.8-15.1,6.9-20.1
	c8.7-7.1,21.5-5.8,28.5,2.9C685.2,71.6,672.6,116.7,672.6,116.7z"/>
<g>
	
		<line fill="none" stroke="#CD4535" stroke-width="7" stroke-linecap="round" stroke-linejoin="round" stroke-miterlimit="10" x1="2107" y1="1442.7" x2="2148.3" y2="1423"/>
	
		<polyline fill="none" stroke="#CD4535" stroke-width="7" stroke-linecap="round" stroke-linejoin="round" stroke-miterlimit="10" points="
		2117.8,1412.2 2148.3,1423 2137.5,1453.5 	"/>
	<path fill="none" stroke="#CD4535" stroke-width="7" stroke-linecap="round" stroke-linejoin="round" stroke-miterlimit="10" d="
		M2044.2,1510.5c-0.9,2.5-2.4,4.7-4.4,6.4l-20.2,17.1c-6.5,5.5-9.4,14.2-7.5,22.5l2.8,12.2c0,0,22.9,8.1,74.5-16.4
		c51.7-24.5,59.8-47.4,59.8-47.4l-7.3-9.3c-5.1-6.6-13.5-9.8-21.7-8.5l-27.1,4.4c-2.5,0.4-5.1,0.2-7.5-0.7l-0.2-0.1"/>
	<path fill="none" stroke="#CD4535" stroke-width="7" stroke-linecap="round" stroke-linejoin="round" stroke-miterlimit="10" d="
		M2069.2,1416.3c-9.5-20-33.4-28.5-53.3-19c-20,9.5-28.5,33.4-19,53.3c12.1,25.4,42.1,49.6,63.2,39.6
		C2080.6,1480.5,2081.2,1441.8,2069.2,1416.3z"/>
</g>
<g>
	
		<polygon fill="none" stroke="#CD4535" stroke-width="7" stroke-linecap="round" stroke-linejoin="round" stroke-miterlimit="10" points="
		342.3,1426 373.7,1457.5 353.3,1460.6 339.1,1446.5 	"/>
	<path fill="none" stroke="#CD4535" stroke-width="7" stroke-linecap="round" stroke-linejoin="round" stroke-miterlimit="10" d="
		M336,1451.2l-5.2,5.2c-1.4,1.4-1.4,3.8,0,5.2l7.3,7.3c1.4,1.4,3.8,1.4,5.2,0l5.2-5.2"/>
	<path fill="none" stroke="#CD4535" stroke-width="7" stroke-linecap="round" stroke-linejoin="round" stroke-miterlimit="10" d="
		M361.1,1432.3c3.5,0,6.3,2.8,6.3,6.3"/>
	<path fill="none" stroke="#CD4535" stroke-width="7" stroke-linecap="round" stroke-linejoin="round" stroke-miterlimit="10" d="
		M361.1,1422.9c8.7,0,15.7,7,15.7,15.7"/>
</g>
<g>
	<path fill="none" stroke="#CD4535" stroke-width="7" stroke-linecap="round" stroke-linejoin="round" stroke-miterlimit="10" d="
		M1642.8,1219.4c-1.7,4.3-5.9,7.2-10.6,7.2h-14.7c-4.7,0-8.8-2.8-10.6-7.2c-4.7-11.9-7.2-24.5-7.2-37.3v-5.8c0-2.8,2.3-5,5-5h40.2
		c2.8,0,5,2.3,5,5v5.8C1650,1194.9,1647.6,1207.5,1642.8,1219.4z"/>
	<path fill="none" stroke="#CD4535" stroke-width="7" stroke-linecap="round" stroke-linejoin="round" stroke-miterlimit="10" d="
		M1650,1191.4"/>
	<path fill="none" stroke="#CD4535" stroke-width="7" stroke-linecap="round" stroke-linejoin="round" stroke-miterlimit="10" d="
		M1657.5,1171.3h2.5c5.6,0,10.1,4.5,10.1,10.1c0,5.6-4.5,10.1-10.1,10.1h-2.5"/>
	<path fill="none" stroke="#CD4535" stroke-width="7" stroke-linecap="round" stroke-linejoin="round" stroke-miterlimit="10" d="
		M1624.9,1161.2c1.6-4.9,1.6-10.2,0-15.1"/>
	<path fill="none" stroke="#CD4535" stroke-width="7" stroke-linecap="round" stroke-linejoin="round" stroke-miterlimit="10" d="
		M1616,1161.2c0,0-0.1-0.2-0.2-0.4c-1.4-3.1-1.3-6.6,0.2-9.6"/>
	<path fill="none" stroke="#CD4535" stroke-width="7" stroke-linecap="round" stroke-linejoin="round" stroke-miterlimit="10" d="
		M1634.9,1161.2c0,0,0.1-0.2,0.2-0.4c1.4-3.1,1.3-6.6-0.2-9.6"/>
</g>
<path fill="none" stroke="#CD4535" stroke-width="7" stroke-linecap="round" stroke-linejoin="round" stroke-miterlimit="10" d="
	M1133,1282.2c-1.2,0.7-2.7,0.6-3.9-0.2l-5.1-3.9l-13.9,6.9v6.6c0,2,0.9,3.9,2.3,5.2s3.5,1.9,5.4,1.7c11.1-1.4,21.5-6.4,29.5-14.4
	c8-8,13-18.4,14.4-29.5c0.2-2-0.4-4-1.7-5.4s-3.2-2.3-5.2-2.3h-6.6l-6.9,13.9l3.9,5.1c0.8,1.1,0.9,2.7,0.2,3.9
	C1142.3,1274.9,1138.1,1279.2,1133,1282.2z"/>
<g>
	
		<line fill="none" stroke="#CD4535" stroke-width="7" stroke-linecap="round" stroke-linejoin="round" stroke-miterlimit="10" x1="415.9" y1="432.6" x2="369.9" y2="656.5"/>
	
		<line fill="none" stroke="#CD4535" stroke-width="7" stroke-linecap="round" stroke-linejoin="round" stroke-miterlimit="10" x1="477.2" y1="432.6" x2="431.2" y2="656.5"/>
	
		<line fill="none" stroke="#CD4535" stroke-width="7" stroke-linecap="round" stroke-linejoin="round" stroke-miterlimit="10" x1="339.2" y1="507.2" x2="523.2" y2="507.2"/>
	
		<line fill="none" stroke="#CD4535" stroke-width="7" stroke-linecap="round" stroke-linejoin="round" stroke-miterlimit="10" x1="323.8" y1="585.7" x2="507.9" y2="585.7"/>
</g>
<path fill-rule="evenodd" clip-rule="evenodd" fill="none" stroke="#CD4535" stroke-width="7" stroke-linecap="round" stroke-linejoin="round" stroke-miterlimit="10" d="
	M479.5,1316.7l-98.9-72.6l-98.9,71.2l37.8-111l-98.9-66.8h122.3l37.8-113.1l37.8,113.1h122.3l-98.9,66.4L479.5,1316.7z"/>
</svg>
